#!OML:ASF G:\ViconDB\ViconDB\414\test\team2\shane.ASF
:FULLY-SPECIFIED
:DEGREES
440
root 5.6729 16.9048 36.697 -9.00027 8.725 -7.99566
lowerback 5.56092 2.26117 7.75696
upperback 2.40049 3.43057 1.82049
thorax -0.284013 1.765 -2.64157
lowerneck -16.6823 -3.70111 -6.97981
upperneck 18.063 -5.69484 11.1808
head 8.94499 -1.99178 4.26802
rclavicle -3.16033e-014 -9.74045e-015
rhumerus -24.0867 9.33981 -93.0694
rradius 35.6034
rwrist 29.9306
rhand -31.2611 -15.954
rfingers 7.12502
rthumb -4.5353 -45.8855
lclavicle -3.16033e-014 -9.74045e-015
lhumerus -46.464 -24.0863 98.414
lradius 23.8369
lwrist -9.84234
lhand -33.2624 7.01689
lfingers 7.12502
lthumb -6.46752 36.8981
rfemur 23.3724 -15.5648 22.3093
rtibia 6.25336
rfoot -16.0748 7.74101
rtoes -9.33887
lfemur -18.4666 6.70696 -5.22569
ltibia 41.859
lfoot -29.7992 -12.657
ltoes -9.49071
441
root 5.69606 16.9069 36.844 -8.71226 8.63526 -7.75018
lowerback 5.61706 2.43601 7.89086
upperback 2.26191 3.6783 1.45662
thorax -0.400308 1.88345 -3.1087
lowerneck -16.7556 -3.95031 -6.9798
upperneck 18.0714 -6.08543 11.3824
head 9.0098 -2.15108 4.28615
rclavicle -4.45902e-014 1.98785e-015
rhumerus -23.6596 10.2806 -93.3859
rradius 36.1982
rwrist 29.8942
rhand -30.8292 -16.1793
rfingers 7.12502
rthumb -4.11824 -46.1193
lclavicle -4.45902e-014 1.98785e-015
lhumerus -47.0737 -23.852 97.7001
lradius 23.987
lwrist -10.1047
lhand -33.0523 7.13386
lfingers 7.12502
lthumb -6.26474 37.0212
rfemur 26.4837 -15.362 22.0029
rtibia -2.22639e-014
rfoot -12.9439 8.02211
rtoes -8.65805
lfemur -19.4449 6.71954 -5.82822
ltibia 40.1278
lfoot -30.1518 -13.7109
ltoes -10.3413
442
root 5.71868 16.908 36.9907 -8.33468 8.58336 -7.55132
lowerback 5.51975 2.58849 7.95653
upperback 2.14598 3.87742 1.1887
thorax -0.420644 1.98054 -3.42822
lowerneck -16.8983 -3.95382 -7.15374
upperneck 17.9625 -6.05642 11.5168
head 9.00603 -2.13353 4.36395
rclavicle -6.15068e-015 9.93923e-015
rhumerus -23.6596 10.2806 -93.3859
rradius 36.1982
rwrist 29.8942
rhand -30.8292 -16.1793
rfingers 7.12502
rthumb -4.11824 -46.1193
lclavicle -6.15068e-015 9.93923e-015
lhumerus -47.5199 -23.4332 96.9969
lradius 24.0573
lwrist -10.0621
lhand -33.1728 6.65017
lfingers 7.12502
lthumb -6.38102 36.5341
rfemur 26.6496 -15.2022 21.7522
rtibia -2.8625e-014
rfoot -13.606 8.09446
rtoes -9.54918
lfemur -20.6486 6.67895 -6.36309
ltibia 38.7035
lfoot -30.438 -14.5184
ltoes -10.3445
443
root 5.74173 16.893 37.1275 -8.17705 8.47293 -7.57763
lowerback 5.79497 2.71265 8.25456
upperback 2.05801 4.08703 0.969779
thorax -0.602425 2.07803 -3.84724
lowerneck -17.0916 -4.15984 -7.58119
upperneck 17.9466 -6.34432 12.0786
head 9.10274 -2.23394 4.59507
rclavicle 2.00027e-014 6.75868e-015
rhumerus -22.5739 12.6421 -93.6787
rradius 37.6915
rwrist 28.5177
rhand -30.1986 -15.9426
rfingers 7.12502
rthumb -3.50926 -45.8934
lclavicle 2.00027e-014 6.75868e-015
lhumerus -47.8085 -22.7061 95.9961
lradius 24.0623
lwrist -10.7563
lhand -33.405 6.65364
lfingers 7.12502
lthumb -6.60524 36.5306
rfemur 27.0249 -15.0156 21.6609
rtibia -9.22361e-014
rfoot -14.2393 8.30543
rtoes -9.18422
lfemur -21.6746 6.68906 -6.64336
ltibia 37.5725
lfoot -30.8978 -15.0291
ltoes -10.2511
444
root 5.75197 16.874 37.2756 -7.83128 8.33164 -7.37978
lowerback 5.74096 2.88926 8.02347
upperback 2.02049 4.30271 0.761005
thorax -0.585452 2.1853 -3.94234
lowerneck -17.0879 -4.57731 -8.03462
upperneck 17.6325 -6.90974 12.6718
head 9.10013 -2.47541 4.79683
rclavicle -5.86415e-015 -2.38542e-015
rhumerus -21.8418 13.6464 -93.7229
rradius 38.215
rwrist 29.1385
rhand -30.0765 -15.9199
rfingers 7.12502
rthumb -3.39137 -45.8726
lclavicle -5.86415e-015 -2.38542e-015
lhumerus -48.1002 -22.3342 95.1965
lradius 24.176
lwrist -10.7786
lhand -33.1189 6.78031
lfingers 7.12502
lthumb -6.32902 36.6658
rfemur 27.2294 -14.8044 21.4939
rtibia -3.18055e-014
rfoot -15.1624 8.36802
rtoes -9.24148
lfemur -22.9903 7.02752 -7.10135
ltibia 36.7984
lfoot -31.1464 -15.5968
ltoes -10.2409
445
root 5.77633 16.8468 37.4095 -7.45484 8.36807 -7.0199
lowerback 5.87419 2.98302 7.86258
upperback 1.91471 4.43152 0.458649
thorax -0.741591 2.24119 -4.18455
lowerneck -17.5835 -4.24733 -7.32522
upperneck 17.66 -6.45697 11.9693
head 9.09584 -2.26962 4.48741
rclavicle 9.49818e-015 -2.06736e-014
rhumerus -21.2259 15.0911 -93.7071
rradius 39.0003
rwrist 28.4366
rhand -30.0765 -15.9199
rfingers 7.12502
rthumb -3.39137 -45.8726
lclavicle 9.49818e-015 -2.06736e-014
lhumerus -48.1795 -21.2626 93.9978
lradius 24.1125
lwrist -11.3906
lhand -33.6522 6.37762
lfingers 7.12502
lthumb -6.84383 36.247
rfemur 27.4171 -14.7312 21.1005
rtibia -6.04305e-014
rfoot -16.0053 8.23965
rtoes -9.62055
lfemur -24.3722 7.37399 -7.91653
ltibia 36.2759
lfoot -31.5365 -15.7957
ltoes -9.92504
